<svg width="66" height="22" viewBox="0 0 66 22" fill="none" xmlns="http://www.w3.org/2000/svg">
<path d="M43.1491 0.570959C42.9639 0.571043 42.7805 0.607642 42.6095 0.678663C42.4384 0.749684 42.283 0.853736 42.1522 0.984869C41.8936 1.24356 41.7385 1.60897 41.7385 1.98407V19.0404C41.7385 19.4155 41.8872 19.7744 42.1522 20.0396C42.2831 20.1707 42.4385 20.2747 42.6097 20.3457C42.7808 20.4166 42.9642 20.4532 43.1494 20.4532C43.3346 20.4532 43.518 20.4166 43.6891 20.3457C43.8603 20.2747 44.0157 20.1707 44.1466 20.0396C44.4052 19.7809 44.5603 19.4155 44.5603 19.0404V1.98343C44.5603 1.60832 44.4116 1.24938 44.1466 0.984222C44.0157 0.853012 43.8602 0.748916 43.689 0.677892C43.5179 0.606869 43.3344 0.570311 43.1491 0.570313V0.570959ZM21.659 6.58299C21.659 5.80303 21.0274 5.17053 20.2496 5.17053C19.4719 5.17053 18.8403 5.80303 18.8403 6.58299V19.0391C18.8403 19.819 19.4719 20.4515 20.2496 20.4515C21.0274 20.4515 21.659 19.819 21.659 19.0391V6.58299Z" fill="white"/>
<path d="M22.0572 1.98594C22.0481 2.4598 21.8536 2.91118 21.5155 3.24319C21.1776 3.57482 20.7231 3.7606 20.2497 3.7606C19.7763 3.7606 19.3218 3.57482 18.9839 3.24319C18.6458 2.91118 18.4513 2.4598 18.4421 1.98594C18.4419 1.50575 18.6324 1.04514 18.9716 0.705407C19.1392 0.537219 19.3384 0.403776 19.5576 0.312724C19.7769 0.221673 20.012 0.174805 20.2494 0.174805C20.4868 0.174805 20.7218 0.221673 20.9411 0.312724C21.1604 0.403776 21.3595 0.537219 21.5271 0.705407C21.8663 1.04514 22.0568 1.50575 22.0566 1.98594H22.0572Z" fill="#0966BC"/>
<path d="M39.1901 9.6783C37.8351 6.60891 34.6292 4.43976 30.9715 4.81487C29.7383 4.94527 28.552 5.35966 27.5057 6.02555C26.459 6.69188 25.5806 7.59145 24.9392 8.65388C24.2975 9.71689 23.9101 10.9139 23.8072 12.1514C23.7038 13.3893 23.8887 14.6349 24.3457 15.7886C24.8027 16.9428 25.5202 17.9755 26.4423 18.8063C27.364 19.6364 28.4652 20.242 29.6598 20.5758C30.8541 20.9094 32.1095 20.9615 33.3274 20.7281C34.5453 20.4947 35.6926 19.9821 36.6792 19.2306C36.8451 19.1032 36.9805 18.9404 37.0755 18.7539C37.1705 18.5677 37.2229 18.362 37.228 18.1525C37.2387 17.7809 37.1015 17.4202 36.8466 17.1497C36.5917 16.8792 36.2399 16.7209 35.8685 16.7096C35.5493 16.6994 35.2363 16.7989 34.9815 16.9916C34.0051 17.7459 32.7912 18.1262 31.5591 18.0639C30.5584 18.0128 29.5934 17.6749 28.7793 17.0905C27.9615 16.5069 27.3271 15.7022 26.9504 14.7707C26.899 14.6451 26.8959 14.505 26.9416 14.3772C26.9873 14.2494 27.0786 14.1431 27.198 14.0787C27.2771 14.0362 27.3655 14.014 27.4553 14.014H37.2461C37.7179 14.016 38.1795 13.8775 38.5723 13.6162C38.9651 13.3548 39.2713 12.9825 39.4519 12.5466C39.5723 12.2571 39.6344 11.9468 39.6349 11.6334C39.6151 10.9605 39.4672 10.2976 39.1991 9.68024L39.1901 9.6783ZM31.8041 7.57513C32.8523 7.57538 33.8763 7.89034 34.7436 8.47926C35.6115 9.06886 36.2826 9.90535 36.6701 10.8806C36.7028 10.9638 36.715 11.0536 36.7057 11.1425C36.696 11.2313 36.6647 11.3165 36.6147 11.3905C36.5647 11.4645 36.4974 11.5253 36.4187 11.5674C36.3399 11.6096 36.252 11.6318 36.1626 11.6321H27.4449C27.3555 11.6322 27.2675 11.61 27.1889 11.5674C27.1101 11.5247 27.0428 11.4639 26.9924 11.3909C26.942 11.3178 26.9109 11.2318 26.9019 11.1425C26.8925 11.0536 26.9047 10.9638 26.9375 10.8806C27.325 9.90535 27.9961 9.06886 28.8639 8.47926C29.7327 7.89329 30.7557 7.57861 31.8035 7.57513H31.8041ZM54.7042 18.069C53.6992 18.0693 52.7155 17.7798 51.8707 17.2354C51.025 16.6887 50.3524 15.9126 49.9313 14.9977C49.5146 14.0816 49.3699 13.065 49.5143 12.069C49.6587 11.073 50.0862 10.1394 50.7458 9.37951L48.6125 7.55766C47.9218 8.36015 47.3967 9.29144 47.0674 10.2979C46.7373 11.3043 46.6088 12.366 46.6892 13.4222C46.7694 14.4784 47.0577 15.5086 47.5296 16.4535C48.0081 17.3979 48.6683 18.2386 49.4723 18.9272C50.2758 19.6157 51.2073 20.1388 52.2133 20.4665C53.219 20.7941 54.2796 20.9194 55.3339 20.8351C56.3884 20.7509 57.4158 20.4586 58.3568 19.9749C59.2982 19.4918 60.1351 18.8274 60.8192 18.0199L58.6858 16.1987C58.1949 16.7847 57.5814 17.2558 56.8886 17.5788C56.1964 17.902 55.4416 18.0691 54.6777 18.0684L54.7042 18.069Z" fill="white"/>
<path d="M54.7044 4.7671C53.5509 4.76567 52.4107 5.01388 51.3621 5.49467C50.3127 5.97559 49.3794 6.67756 48.6262 7.55258L50.7531 9.37443C51.6591 8.32997 52.9411 7.68634 54.3196 7.58396C55.6981 7.48158 57.0611 7.92876 58.1113 8.82794C59.1617 9.72864 59.8145 11.0075 59.9279 12.3869C60.0406 13.7665 59.6043 15.1348 58.7138 16.1942L60.8407 18.0154C61.8304 16.8431 62.4651 15.4126 62.6702 13.8919C62.875 12.3708 62.6413 10.8228 61.9966 9.43005C61.3522 8.03793 60.3233 6.85918 59.0312 6.03275C57.7379 5.20939 56.2374 4.77048 54.7044 4.7671V4.7671Z" fill="#0966BC"/>
<path d="M16.2415 17.0549C15.9985 16.8442 15.6908 16.7229 15.3694 16.7113C15.048 16.6996 14.7323 16.7983 14.4747 16.9909C13.6995 17.5844 12.7737 17.9492 11.802 18.0438C10.8303 18.1384 9.85161 17.9592 8.97646 17.5264C8.10121 17.0928 7.36403 16.4239 6.84762 15.5946C6.33129 14.7644 6.05687 13.8066 6.05527 12.8288C6.05367 11.8511 6.32495 10.8923 6.83857 10.0605C7.35177 9.22927 8.08684 8.55797 8.96094 8.12224C9.83461 7.68608 10.8129 7.50343 11.785 7.59499C12.7572 7.68655 13.6842 8.04865 14.4611 8.64027C14.7158 8.83661 15.0301 8.93951 15.3515 8.93174C15.6729 8.92397 15.9818 8.80601 16.2267 8.59759C16.3851 8.46178 16.5111 8.29362 16.5952 8.10413C16.6792 7.91464 16.7219 7.70768 16.718 7.49944C16.7141 7.29119 16.6624 7.08682 16.5693 6.90121C16.4762 6.71559 16.3417 6.55197 16.1782 6.42521C14.9872 5.51315 13.5647 4.95305 12.0718 4.80838C10.5783 4.66321 9.07414 4.93993 7.73002 5.60711C6.38591 6.27429 5.25576 7.30519 4.46794 8.58271C3.67894 9.86036 3.26228 11.333 3.2649 12.8348C3.26753 14.3366 3.68934 15.8079 4.48281 17.0827C5.27606 18.3563 6.40989 19.3822 7.75592 20.0443C9.10195 20.7065 10.6064 20.9784 12.0989 20.8293C13.5912 20.6796 15.0117 20.1148 16.1995 19.1988C16.361 19.0722 16.4922 18.9112 16.5838 18.7275C16.6754 18.5439 16.725 18.3421 16.729 18.1369C16.7331 17.9317 16.6916 17.7282 16.6074 17.5411C16.5232 17.354 16.3984 17.1879 16.2422 17.0549H16.2415Z" fill="white"/>
</svg>
