<svg width="69" height="27" viewBox="0 0 69 27" fill="none" xmlns="http://www.w3.org/2000/svg">
<path d="M11.2413 5.79988C12.0117 5.54264 12.8334 5.40544 13.686 5.40544C17.4181 5.40544 20.5339 8.06015 21.246 11.5895L26.536 10.5091C25.324 4.51368 20.0305 0 13.686 0C12.2308 0 10.8372 0.23666 9.5293 0.67568L11.2413 5.79988Z" fill="#FFCB05"/>
<path d="M4.99942 22.9697L8.57745 18.919C6.98189 17.5025 5.97525 15.4343 5.97525 13.1294C5.97525 10.828 6.98189 8.75978 8.57745 7.34669L4.99942 3.2926C2.28766 5.70036 0.575684 9.21595 0.575684 13.1294C0.575684 17.0463 2.28766 20.5619 4.99942 22.9697" fill="#00A4E0"/>
<path d="M21.246 14.6798C20.5304 18.2057 17.4181 20.857 13.6894 20.857C12.8334 20.857 12.0082 20.7198 11.2413 20.4591L9.5293 25.5902C10.8372 26.0258 12.2342 26.2624 13.6894 26.2624C20.0271 26.2624 25.3171 21.7556 26.536 15.7671L21.246 14.6798Z" fill="#EF4123"/>
<path d="M31.1619 19.0871C30.9873 18.8059 30.7545 18.3566 30.6107 18.0239C29.7718 16.0757 29.7342 14.059 30.4395 12.1245C31.2167 10.0014 32.7027 8.37913 34.6235 7.5491C37.0374 6.50986 39.7047 6.71222 42.0193 8.08759C43.4882 8.93133 44.529 10.2347 45.32 12.0799C45.4193 12.3166 45.5083 12.567 45.5973 12.7831L31.1619 19.0871ZM35.9829 10.6806C34.2675 11.418 33.3841 13.03 33.569 14.9164L40.8277 11.785C39.578 10.317 37.9551 9.82995 35.9829 10.6806V10.6806ZM41.7317 17.4922C41.7282 17.4922 41.7282 17.4957 41.7282 17.4957L41.5776 17.3928C41.1427 18.0959 40.4682 18.6687 39.6157 19.0391C37.9927 19.7456 36.4896 19.5639 35.4076 18.6138L35.3083 18.7647C35.3083 18.7647 35.3083 18.7613 35.3049 18.7613L33.4628 21.5223C33.9216 21.8413 34.4113 22.1088 34.9249 22.3249C36.9587 23.1721 39.0404 23.1309 41.0914 22.2392C42.574 21.5943 43.7381 20.6134 44.5325 19.3684L41.7317 17.4922ZM50.6408 3.48816V18.8333L53.0238 19.8005L51.6714 22.9628L49.0418 21.8653C48.4529 21.6081 48.0489 21.2171 47.7475 20.7746C47.4565 20.3253 47.2408 19.7045 47.2408 18.8745V3.48816H50.6408ZM56.8107 14.9267C56.8107 13.6199 57.3894 12.4469 58.3002 11.6512L55.8555 8.92104C54.1983 10.389 53.154 12.5327 53.154 14.9198C53.1505 17.3105 54.1948 19.4575 55.8486 20.9255L58.2899 18.1954C57.3825 17.3962 56.8107 16.2301 56.8107 14.9267V14.9267ZM61.1523 19.2792C60.6729 19.2792 60.2073 19.1969 59.7759 19.0528L58.6083 22.5273C59.4061 22.7948 60.2587 22.9423 61.1489 22.9423C65.0179 22.9457 68.2467 20.195 68.9966 16.5422L65.4083 15.8082C65.0008 17.7941 63.2512 19.2826 61.1523 19.2792V19.2792ZM61.1626 6.91115C60.2758 6.91115 59.4232 7.0552 58.6254 7.3193L59.7827 10.7972C60.2176 10.6531 60.6798 10.5742 61.1591 10.5742C63.2615 10.5777 65.0145 12.0731 65.4117 14.0624L69 13.3353C68.2638 9.67561 65.0351 6.91458 61.1626 6.91115V6.91115Z" fill="white"/>
</svg>
